<svg width="24" height="24" viewBox="0 0 24 24" fill="none" xmlns="http://www.w3.org/2000/svg">
<path d="M22.2026 4.13794H1.79742C0.804703 4.13794 0 4.94264 0 5.93536V9.37931H24V5.93536C24 4.94264 23.1953 4.13794 22.2026 4.13794Z" fill="#F5F5F5"/>
<path d="M0 18.0646C0 19.0573 0.804703 19.8621 1.79742 19.8621H22.2026C23.1952 19.8621 24 19.0574 24 18.0646V14.6207H0V18.0646Z" fill="#FF4B55"/>
<path d="M24 9.37922H0V14.6203H24V9.37922Z" fill="#41479B"/>
<path d="M6.10436 15.904C5.98188 15.8336 3.10352 14.1595 3.10352 11.5862V8.06897H9.31042V11.5862C9.31042 14.1595 6.43206 15.8336 6.30958 15.904L6.20697 15.9625L6.10436 15.904Z" fill="#FF4B55"/>
<path d="M7.83255 10.9655L6.85713 11.094H6.53205V10.5119H6.7271L7.50742 10.6404L7.40172 10.1868L7.50742 9.73317L6.7271 9.8616H6.53205V9.66501L6.66053 8.68964L6.20692 8.82178L5.75331 8.68964L5.8818 9.66501V9.8616H5.68666L4.90642 9.73317L5.01208 10.1868L4.90642 10.6404L5.68666 10.5119H5.8818V11.094H5.55667L4.5813 10.9655L4.71339 11.4191L4.5813 11.8727L5.55667 11.7442H5.8818V13.2414H6.53205V11.7442H6.85713L7.83255 11.8727L7.70046 11.4191L7.83255 10.9655Z" fill="#F5F5F5"/>
<path d="M6.20696 12.6207C5.77956 12.6207 5.413 12.88 5.25531 13.2497C5.22746 13.2474 5.20084 13.2413 5.17248 13.2413C4.62165 13.2413 4.17564 13.6731 4.14404 14.2159C4.98193 15.2474 6.03142 15.862 6.10436 15.9039L6.20696 15.9625L6.30957 15.9039C6.38251 15.862 7.432 15.2474 8.26989 14.2159C8.23834 13.6731 7.79228 13.2413 7.24145 13.2413C7.21309 13.2413 7.18642 13.2474 7.15862 13.2497C7.00093 12.88 6.63437 12.6207 6.20696 12.6207Z" fill="#41479B"/>
<path d="M9.10339 8.27587C9.10339 8.27587 9.10339 10.7587 9.10339 11.5862C9.10339 14.069 6.20684 15.7242 6.20684 15.7242C6.20684 15.7242 3.3103 14.069 3.3103 11.5862C3.3103 10.7587 3.3103 8.27587 3.3103 8.27587H9.10339ZM9.51716 7.86206H9.10334H3.3103H2.89648V8.27587V11.5862C2.89648 14.2782 5.87478 16.011 6.00153 16.0834L6.20684 16.2007L6.41216 16.0834C6.53895 16.011 9.5172 14.2781 9.5172 11.5862V8.27587V7.86206H9.51716Z" fill="#F5F5F5"/>
</svg>
