<svg width="24" height="24" viewBox="0 0 24 24" fill="none" xmlns="http://www.w3.org/2000/svg">
<path d="M22.2025 4.138H1.79739C0.930858 4.138 0.20767 4.75131 0.0378418 5.56745H23.9622C23.7923 4.75127 23.0691 4.138 22.2025 4.138Z" fill="#FF4B55"/>
<path d="M0.037875 5.56744C0.013125 5.68623 0 5.80927 0 5.93541V6.9969H24V5.93541C24 5.80932 23.9869 5.68627 23.9621 5.56744H0.037875Z" fill="#F5F5F5"/>
<path d="M24 6.99658H0V8.42604H24V6.99658Z" fill="#FF4B55"/>
<path d="M24 8.42627H0V9.85572H24V8.42627Z" fill="#F5F5F5"/>
<path d="M0 10.7586H0.413719L0.413813 11.2853H24V9.85583H0V10.7586Z" fill="#FF4B55"/>
<path d="M0.413719 10.7587H0V10.8715V12.7147H24V11.2854H0.413813L0.413719 10.7587Z" fill="#F5F5F5"/>
<path d="M24 12.7148H0V14.1443H24V12.7148Z" fill="#FF4B55"/>
<path d="M24 14.144H0V15.5735H24V14.144Z" fill="#F5F5F5"/>
<path d="M24 15.5737H0V17.0032H24V15.5737Z" fill="#FF4B55"/>
<path d="M0 18.0647C0 18.1908 0.013125 18.3138 0.0378281 18.4326H23.9622C23.9869 18.3138 24 18.1908 24 18.0647V17.0032H0V18.0647Z" fill="#F5F5F5"/>
<path d="M1.79706 19.8621H22.203C23.0694 19.8619 23.7924 19.2487 23.9622 18.4326H0.0378418C0.207623 19.2487 0.930623 19.8619 1.79706 19.8621Z" fill="#FF4B55"/>
<path d="M0.413813 11.2853H6.62072C6.84923 11.2853 7.03453 11.1 7.03453 10.8715V4.55175C7.03453 4.32328 6.84937 4.13808 6.62095 4.13794H1.79742C0.804703 4.13799 0 4.94269 0 5.93541V10.8715C0 11.1 0.185297 11.2853 0.413813 11.2853Z" fill="#41479B"/>
<path d="M3.39896 5.98764L3.0039 7.17218L1.75524 7.18183C1.63552 7.18277 1.58584 7.33553 1.68216 7.40669L2.68665 8.14849L2.31001 9.33902C2.27391 9.45316 2.4039 9.54761 2.5013 9.478L3.51727 8.75196L4.53315 9.47805C4.63055 9.54766 4.76054 9.45321 4.72444 9.33907L4.3478 8.14853L5.35229 7.40674C5.44862 7.33563 5.39893 7.18277 5.27921 7.18188L4.03055 7.17222L3.63549 5.98769C3.59752 5.87407 3.43688 5.87407 3.39896 5.98764Z" fill="#F5F5F5"/>
</svg>
