<svg width="24" height="24" viewBox="0 0 24 24" fill="none" xmlns="http://www.w3.org/2000/svg">
<path d="M22.2026 19.8621H1.79742C0.804703 19.8621 0 19.0574 0 18.0646V5.93536C0 4.94269 0.804703 4.13794 1.79742 4.13794H22.2026C23.1952 4.13794 24 4.94264 24 5.93536V18.0647C24 19.0574 23.1953 19.8621 22.2026 19.8621Z" fill="#F5F5F5"/>
<path d="M6.66792 12.8128C6.66792 12.8128 6.67941 13.0323 6.49458 13.2287C6.30975 13.4251 6.40214 13.6792 6.64477 13.7948C6.64477 13.7948 6.47733 14.1933 6.72567 14.3608C6.88247 14.4666 7.09533 14.4532 7.09533 14.4532C7.09533 14.4532 7.21088 14.9269 7.11844 15.2272C7.026 15.5276 7.15308 16.394 9.2671 15.8972C9.2671 15.8972 9.28627 16.4517 10.1335 16.883C10.9806 17.3143 10.8147 18.3359 10.8147 18.3359C10.8147 18.3359 11.9807 19.011 13.2695 17.4153C14.5583 15.8197 14.6504 15.6049 15.5709 15.2367C15.5709 15.2367 14.1287 13.7638 14.6504 12.475C14.7191 12.3051 14.7968 12.1269 14.8777 11.9436C15.027 12.4287 15.3221 13.137 15.8491 13.549C16.0131 13.6765 16.2154 13.7168 16.411 13.7561C16.621 13.7983 16.8023 13.8347 16.8876 13.9641C16.9627 14.0795 16.9695 14.2828 16.9115 14.5643C16.2848 15.2479 15.6793 15.4301 15.6708 15.4322L15.525 15.4716L15.8314 16.482L14.9171 17.3232L14.9334 17.4047C15.0465 17.9686 15.3946 18.0433 15.5385 18.0501C15.5471 18.0501 15.5558 18.0511 15.5644 18.0511C15.8971 18.0511 16.2356 17.7711 16.343 17.4019C16.5291 16.7643 17.136 16.6914 17.1428 16.6914L17.2349 16.6808L17.2655 16.5936C17.279 16.5552 17.5944 15.6461 17.7497 14.7199C17.8122 14.3452 17.8241 14.0469 17.8113 13.786C17.8162 13.777 17.8216 13.772 17.8264 13.7629L17.8106 13.7546C17.752 12.7669 17.2163 12.504 16.6872 12.2602C16.2361 12.0508 16.0591 11.8475 15.9715 11.6863C15.9897 11.6867 16.0051 11.6916 16.0236 11.6916C16.1675 11.6916 16.319 11.6752 16.4724 11.6321C16.9 11.5132 17.2463 11.2207 17.5013 10.7633C17.6566 10.4833 18.8122 7.31315 18.9435 6.95263L19.0346 6.70232L17.543 7.02069L17.6566 6.11357L15.7234 6.79537L15.7695 6.93346C15.7762 6.95165 16.3918 8.80049 16.3323 9.9291C16.316 10.2254 16.223 10.4402 16.0533 10.5667C15.8399 10.7243 15.5507 10.7159 15.3997 10.6997C15.7361 9.80572 15.9531 8.86649 15.6323 8.0256C15.1009 6.63243 12.7478 5.35597 10.9681 5.5401C9.18844 5.72422 7.71333 6.15426 7.22236 7.93405C6.73139 9.71385 6.86827 10.1841 6.92967 10.4909C6.99103 10.7977 5.8351 12.1522 6.04411 12.5703C6.18267 12.8475 6.66792 12.8128 6.66792 12.8128ZM15.199 11.2033C15.23 11.1304 15.2609 11.0577 15.291 10.9838C15.3455 10.9935 15.4263 11.005 15.5451 11.005C15.7464 11.005 16.0101 10.9666 16.2297 10.8026C16.4723 10.6214 16.6056 10.3327 16.6258 9.94443C16.6804 8.93183 16.2393 7.43877 16.0936 6.97752L17.3056 6.55082L17.0113 8.90211L17.3028 8.93854L17.5043 7.32969L18.5762 7.10122C18.0652 8.50124 17.3469 10.4353 17.2443 10.6195C17.0286 11.006 16.7418 11.2514 16.3928 11.3483C15.8686 11.4969 15.3692 11.2869 15.199 11.2033ZM15.9262 16.7951L16.0757 17.2887C16.0719 17.3007 16.0646 17.3071 16.061 17.3194C15.991 17.5591 15.7657 17.7557 15.5652 17.7557C15.5604 17.7557 15.5557 17.7557 15.5518 17.7557C15.3696 17.748 15.2823 17.5706 15.2411 17.4258L15.9262 16.7951ZM17.5099 14.2482C17.4981 14.3805 17.4853 14.5146 17.4591 14.6718C17.3344 15.4169 17.0947 16.1725 17.0141 16.4151C16.8492 16.4537 16.5088 16.5703 16.2658 16.9001L15.8912 15.6672C16.1899 15.5485 16.8894 15.1566 17.5099 14.2482ZM15.0686 11.5108C15.0743 11.498 15.0798 11.4862 15.0853 11.4734C15.196 11.5259 15.3829 11.6031 15.6322 11.6518C15.7015 11.8579 15.8638 12.2029 16.5634 12.5268C17.0486 12.7508 17.4568 12.9408 17.5217 13.6907C17.4301 13.8591 17.3298 13.9761 17.232 14.1144C17.2178 13.9953 17.1901 13.8883 17.134 13.8031C16.9806 13.5701 16.7092 13.5154 16.4685 13.4675C16.2988 13.433 16.1386 13.4013 16.0303 13.3169C15.4111 12.8334 15.1457 11.8506 15.0686 11.5108ZM7.40724 9.33557C7.40724 9.33557 7.45336 8.29597 7.9156 7.41796L14.9855 10.6988L14.3847 11.9926L7.40724 9.33557Z" fill="#464655"/>
</svg>
