<svg width="24" height="24" viewBox="0 0 24 24" fill="none" xmlns="http://www.w3.org/2000/svg">
<path d="M23.9634 5.57312C23.9515 5.51462 23.9366 5.45715 23.9191 5.4009C23.9017 5.34465 23.8814 5.28953 23.8587 5.23576C23.8246 5.15513 23.7847 5.07746 23.7397 5.00335C23.6947 4.92924 23.6444 4.85865 23.5895 4.79204C23.5346 4.72548 23.4749 4.6629 23.4111 4.60491C23.3937 4.58907 23.3757 4.57388 23.3577 4.55874L0.64209 19.4414C0.954512 19.7039 1.35731 19.8621 1.79728 19.8621H22.2025C23.1951 19.8621 23.9999 19.0574 23.9999 18.0647V5.93537C23.9999 5.81129 23.9874 5.69012 23.9634 5.57312Z" fill="#41479B"/>
<path d="M23.2781 4.49504C23.232 4.46054 23.1841 4.4282 23.1347 4.39815C22.8629 4.23301 22.5438 4.13795 22.2026 4.13795H10.5365L0 11.0411V18.0646C0 18.6173 0.249657 19.1116 0.642189 19.4413L23.3579 4.5587C23.3318 4.53681 23.3054 4.51543 23.2781 4.49504Z" fill="#F5F5F5"/>
<path d="M1.79743 4.13795C1.45622 4.13795 1.13714 4.23306 0.865408 4.39815C0.816002 4.42815 0.768189 4.46054 0.722017 4.49504C0.675845 4.52954 0.631454 4.5662 0.588892 4.60492C0.525048 4.66295 0.465423 4.72548 0.410438 4.79204C0.355501 4.8586 0.305251 4.9292 0.260251 5.00335C0.215204 5.07746 0.17536 5.15514 0.141282 5.23576C0.1185 5.28948 0.0983439 5.34461 0.0808127 5.4009C0.0632814 5.4572 0.0484688 5.51462 0.0365157 5.57312C0.0125625 5.69012 0 5.81129 0 5.93537V11.0412L10.5365 4.13795H1.79743Z" fill="#FFE15A"/>
<path d="M9.48154 10.7408C9.29376 9.48752 8.3055 8.49925 7.0522 8.31147L6.62062 7.44827L6.18904 8.31147C4.93574 8.49925 3.94752 9.48747 3.75969 10.7408L2.89648 11.1724L3.75969 11.604C3.94747 12.8573 4.93574 13.8455 6.18904 14.0333L6.62062 14.8965L7.0522 14.0333C8.3055 13.8455 9.29372 12.8573 9.48154 11.604L10.3447 11.1724L9.48154 10.7408ZM6.62062 13.6552C5.24943 13.6552 4.13783 12.5436 4.13783 11.1724C4.13783 9.80125 5.24938 8.68966 6.62062 8.68966C7.99185 8.68966 9.1034 9.80121 9.1034 11.1724C9.1034 12.5437 7.99185 13.6552 6.62062 13.6552Z" fill="#464655"/>
<path d="M6.62066 9.58118L7.06621 10.4007L7.99865 10.3768L7.51171 11.1724L7.99865 11.968L7.06621 11.9441L6.62066 12.7636L6.17516 11.9441L5.24268 11.968L5.72961 11.1724L5.24268 10.3768L6.17516 10.4007L6.62066 9.58118Z" fill="#FF4B55"/>
</svg>
