<svg width="24" height="24" viewBox="0 0 24 24" fill="none" xmlns="http://www.w3.org/2000/svg">
<path d="M22.2026 4.13782H16V19.8619H22.2026C23.1953 19.8619 24 19.0572 24 18.0645V5.93524C24 4.94252 23.1953 4.13782 22.2026 4.13782Z" fill="#41479B"/>
<path d="M16.0004 4.138H8.00024V19.8622H16.0004V4.138Z" fill="#FFE15A"/>
<path d="M1.79742 4.13782C0.804703 4.13782 0 4.94252 0 5.93524V18.0646C0 19.0572 0.804703 19.862 1.79742 19.862H8.00002V4.13782H1.79742Z" fill="#41479B"/>
<path d="M14.069 10.9654H13.0345V9.93091L13.6552 9.10333H13.0345H10.9656H10.3449L10.9656 9.93091V10.9654H9.93109L9.10352 10.3447V10.9654V13.0344V13.655L9.93109 13.0344H10.9656V14.0688L10.3449 14.8964H10.9656H13.0345H13.6552L13.0345 14.0688V13.0344H14.069L14.8966 13.655V13.0344V10.9654V10.3447L14.069 10.9654Z" fill="#FF4B55"/>
<path d="M14.0691 11.5861H12.4139V9.93091H11.5863V11.5861H9.93115V12.4137H11.5863V14.0688H12.4139V12.4137H14.0691V11.5861Z" fill="#F5F5F5"/>
</svg>
