<svg width="24" height="24" viewBox="0 0 24 24" fill="none" xmlns="http://www.w3.org/2000/svg">
<path d="M22.2026 19.8621H1.79742C0.804703 19.8621 0 19.0574 0 18.0646V5.93536C0 4.94269 0.804703 4.13794 1.79742 4.13794H22.2026C23.1952 4.13794 24 4.94264 24 5.93536V18.0647C24 19.0574 23.1953 19.8621 22.2026 19.8621Z" fill="#4173CD"/>
<path d="M23.9752 18.3615L14.2655 12L23.9752 5.63846C23.8337 4.78711 23.0942 4.13794 22.2026 4.13794H21.7346L12.0001 10.5158L2.26548 4.13794H1.79748C0.905965 4.13794 0.166465 4.78711 0.0249023 5.63846L9.73464 12L0.0249023 18.3615C0.166465 19.2129 0.905965 19.8621 1.79748 19.8621H2.26548L12.0001 13.4842L21.7346 19.8621H22.2026C23.0942 19.8621 23.8337 19.2129 23.9752 18.3615Z" fill="#F5F5F5"/>
</svg>
