<svg width="24" height="24" viewBox="0 0 24 24" fill="none" xmlns="http://www.w3.org/2000/svg">
<path d="M22.2026 4.13794H1.79743C0.804705 4.13794 0 4.94264 0 5.93536V18.0647C0 19.0573 0.804611 19.862 1.79714 19.8621H22.2029C23.1954 19.862 24 19.0573 24 18.0647V5.93536C24 4.94264 23.1953 4.13794 22.2026 4.13794Z" fill="#FF4B55"/>
<path d="M20.6896 7.44824V16.5517H3.3103V7.44824H20.6896Z" fill="#73AF00"/>
<path d="M11.1739 12.0011C11.1739 10.4343 12.2411 9.12222 13.6858 8.74215C13.7339 8.7295 13.7304 8.65993 13.6811 8.65361C13.55 8.63673 13.4167 8.62708 13.2811 8.62708C11.4162 8.62708 9.90649 10.1365 9.90649 12.0011C9.90649 13.8577 11.4162 15.3713 13.2811 15.3713C13.417 15.3713 13.5504 15.3615 13.6816 15.3446C13.7309 15.3382 13.7344 15.2687 13.6863 15.2561C12.2413 14.8754 11.1739 13.5613 11.1739 12.0011Z" fill="#F5F5F5"/>
</svg>
