<svg width="24" height="24" viewBox="0 0 24 24" fill="none" xmlns="http://www.w3.org/2000/svg">
<path d="M17.8779 20.0902C16.1694 21.3315 14.1118 22 12 22C9.88821 22 7.83063 21.3315 6.12215 20.0902M16.3837 3.01206C18.2818 3.93781 19.8381 5.44068 20.8295 7.30528C21.8209 9.16989 22.1966 11.3005 21.9027 13.3917M2.09742 13.3916C1.80352 11.3004 2.1792 9.16979 3.17063 7.30519C4.16205 5.44059 5.71832 3.93771 7.61639 3.01196M17.5 12C17.5 15.0376 15.0376 17.5 12 17.5C8.96244 17.5 6.50001 15.0376 6.50001 12C6.50001 8.96244 8.96244 6.5 12 6.5C15.0376 6.5 17.5 8.96244 17.5 12Z" stroke="#878990" stroke-width="1.8" stroke-linecap="round" stroke-linejoin="round"/>
</svg>
