<svg width="24" height="24" viewBox="0 0 24 24" fill="none" xmlns="http://www.w3.org/2000/svg">
<g clip-path="url(#clip0_1_4585)">
<path d="M22.2062 19.862H1.79678C0.806899 19.862 0 19.0611 0 18.0652V5.93475C0 4.94187 0.806899 4.13797 1.79678 4.13797H22.2032C23.1961 4.13797 24 4.94487 24 5.93475V18.0682C24.003 19.0611 23.1961 19.862 22.2062 19.862Z" fill="#FF4B55"/>
<path d="M0.683914 19.4781L13.4713 12.258C13.6723 12.144 13.6723 11.856 13.4713 11.742L0.683914 4.52194C0.266967 4.8489 0 5.36184 0 5.93177V18.0652C0 18.6382 0.266967 19.1481 0.683914 19.4781Z" fill="#FFE15A"/>
<path d="M0.572928 19.3791L9.17585 12.282C9.35283 12.138 9.35283 11.859 9.17585 11.715L0.572928 4.62091C0.221972 4.95087 0 5.41881 0 5.93475V18.0682C0 18.5872 0.221972 19.0491 0.572928 19.3791Z" fill="#464655"/>
<path d="M2.58263 10.0533L2.62163 11.5441L1.2238 12.063C1.08882 12.114 1.09782 12.303 1.2328 12.345L2.66362 12.7679L2.72362 14.2587C2.72962 14.3997 2.91559 14.4567 2.99658 14.3397L3.83948 13.1129L5.2733 13.5118C5.40828 13.5508 5.51627 13.3888 5.43228 13.2778L4.52639 12.096L5.35129 10.8542C5.43228 10.7372 5.31229 10.5812 5.17731 10.6352L3.77048 11.1331L2.8496 9.96026C2.76261 9.84928 2.58263 9.91527 2.58263 10.0533Z" fill="#F5F5F5"/>
</g>
<defs>
<clipPath id="clip0_1_4585">
<rect width="24" height="24" fill="white"/>
</clipPath>
</defs>
</svg>
