<svg width="118" height="46" viewBox="0 0 118 46" fill="none" xmlns="http://www.w3.org/2000/svg">
<path d="M57.7144 20.0251C57.4215 19.7322 57.4215 19.2574 57.7144 18.9645C58.0073 18.6716 58.4822 18.6716 58.775 18.9645L61.25 21.4394L63.7249 18.9645C64.0177 18.6716 64.4926 18.6716 64.7855 18.9645C65.0784 19.2573 65.0784 19.7322 64.7855 20.0251L62.3105 22.5L64.7855 24.9749C65.0784 25.2678 65.0784 25.7427 64.7855 26.0355C64.4926 26.3284 64.0177 26.3284 63.7249 26.0355L61.25 23.5607L58.775 26.0355C58.4822 26.3284 58.0073 26.3284 57.7145 26.0355C57.4215 25.7426 57.4215 25.2678 57.7145 24.9749L60.1893 22.5001L57.7144 20.0251Z" fill="white"/>
<path fill-rule="evenodd" clip-rule="evenodd" d="M54.6213 14.8787L47 22.5L54.6213 30.1213C55.184 30.684 55.947 31 56.7427 31H67C68.6569 31 70 29.6569 70 28V17C70 15.3431 68.6569 14 67 14H56.7427C55.947 14 55.184 14.3161 54.6213 14.8787ZM67 29.7H56.7427C56.2917 29.7 55.8594 29.5209 55.5405 29.2021L48.8385 22.5L55.5405 15.7979C55.8594 15.4791 56.2917 15.3 56.7427 15.3H67C67.9388 15.3 68.7 16.0611 68.7 17V28C68.7 28.9389 67.9388 29.7 67 29.7Z" fill="white"/>
</svg>
