<svg width="313" height="28" viewBox="0 0 313 28" fill="none" xmlns="http://www.w3.org/2000/svg">
<path fill-rule="evenodd" clip-rule="evenodd" d="M20.8912 16.7548C20.9016 16.751 20.912 16.7472 20.9223 16.7432C22.3346 16.2351 22.1619 17.7402 21.2887 18.3018C19.4432 19.2453 16.6492 19.975 13.5138 19.975C10.8778 20.0055 8.26752 19.4551 5.86834 18.3629C4.93052 17.8816 4.67458 16.3115 6.00891 16.7088C7.84941 17.3697 10.5238 17.702 13.5141 17.702C16.0053 17.7309 18.4883 17.4121 20.8912 16.7548ZM20.9264 16.7451C20.9074 16.751 20.854 16.7682 20.8018 16.785C20.7384 16.8054 20.6768 16.8253 20.6809 16.8234C20.7061 16.8152 20.7311 16.8073 20.7561 16.7994C20.8015 16.7851 20.8465 16.7709 20.8912 16.7548C20.903 16.7516 20.9147 16.7484 20.9264 16.7451ZM20.9264 16.7451C20.9317 16.7435 20.9334 16.7432 20.9334 16.7432C20.9311 16.7439 20.9287 16.7445 20.9264 16.7451Z" fill="#D9D9D9"/>
<path fill-rule="evenodd" clip-rule="evenodd" d="M27 13.501C27.0006 6.04537 20.9572 0.000843985 13.5015 4.86921e-08C9.92087 -0.000303844 6.48676 1.42187 3.95471 3.95363C1.42266 6.48539 0.000101341 9.91934 0 13.5C0 20.9556 6.04385 26.9997 13.4995 27C20.9551 27.0003 26.9994 20.9567 27 13.501ZM7.40502 7.38305C7.74054 7.05062 8.19536 6.86661 8.66766 6.87224C9.13995 6.86661 9.59477 7.05062 9.9303 7.38305C10.2658 7.71549 10.454 8.16859 10.4528 8.64092C10.4528 9.6268 9.65354 10.426 8.66766 10.426C7.68177 10.426 6.88256 9.6268 6.88256 8.64092C6.88129 8.16859 7.06949 7.71549 7.40502 7.38305ZM13.4996 24.1999C18.6272 24.1999 22.8709 20.5289 23.6846 16.132C23.7854 15.1273 22.9141 14.8943 22.1004 15.1006C19.3064 15.9069 16.4093 16.2994 13.5015 16.2657C10.5871 16.3002 7.68345 15.9064 4.88353 15.0968C4.04656 14.8943 3.15802 15.1503 3.3326 16.2351C4.19402 20.5823 8.41286 24.1999 13.4996 24.1999ZM17.0826 7.38303C17.4181 7.05061 17.873 6.86662 18.3453 6.87224C18.8176 6.86672 19.2724 7.05076 19.6079 7.38317C19.9434 7.71558 20.1316 8.16862 20.1304 8.64092C20.1399 9.28496 19.8017 9.88416 19.2454 10.2089C18.6892 10.5337 18.0011 10.5337 17.4449 10.2089C16.8886 9.88416 16.5504 9.28496 16.5598 8.64092C16.5587 8.16856 16.747 7.71546 17.0826 7.38303Z" fill="#D9D9D9"/>
<path d="M298.674 13.3589C298.674 16.3682 300.639 18.4879 303.507 18.4879C306.361 18.4879 308.326 16.3682 308.326 13.3589V5.12897C308.326 2.10654 306.361 0 303.507 0C300.639 0 298.674 2.10654 298.674 5.12897V13.3589ZM300.679 13.3589V5.12897C300.679 3.19252 301.807 1.94953 303.507 1.94953C305.206 1.94953 306.321 3.19252 306.321 5.12897V13.3589C306.321 15.2953 305.206 16.5383 303.507 16.5383C301.807 16.5383 300.679 15.2953 300.679 13.3589ZM294 13.8299C294 18.9589 297.439 22.557 302.498 22.9757V26.0243H297.572C297.014 26.0243 296.563 26.4692 296.563 27.0187C296.563 27.5682 297.014 28 297.572 28H309.428C309.986 28 310.437 27.5682 310.437 27.0187C310.437 26.4692 309.986 26.0243 309.428 26.0243H304.502V22.9757C309.574 22.557 313 18.9589 313 13.8299V11.1738C313 10.6243 312.562 10.1925 312.004 10.1925C311.447 10.1925 310.995 10.6243 310.995 11.1738V13.7514C310.995 18.2131 308.048 21.1701 303.507 21.1701C298.952 21.1701 296.005 18.2131 296.005 13.7514V11.1738C296.005 10.6243 295.567 10.1925 294.996 10.1925C294.438 10.1925 294 10.6243 294 11.1738V13.8299Z" fill="#D9D9D9"/>
</svg>
