<svg width="24" height="24" viewBox="0 0 24 24" fill="none" xmlns="http://www.w3.org/2000/svg">
<path d="M22.2134 4.13808H1.78664C0.798984 4.14389 0 4.94611 0 5.93517V12.0001H24V5.93517C24 4.94611 23.201 4.14389 22.2134 4.13808Z" fill="#73AF00"/>
<path d="M0 18.0645C0 19.0572 0.804703 19.8619 1.79742 19.8619H22.2026C23.1952 19.8619 24 19.0572 24 18.0645V12.0001H0V18.0645Z" fill="#4173CD"/>
<path d="M0 5.93517V18.0645C0 18.7058 0.336141 19.2683 0.841594 19.5865L24 12.0001L0.841031 4.41361C0.335906 4.7318 0 5.29411 0 5.93517Z" fill="#FF4B55"/>
<path d="M8.8503 14.3623C8.8503 14.3623 10.0157 13.9372 10.3448 12.6622C10.3448 12.6622 9.83744 13.3203 9.48095 13.5122C9.48095 13.5122 10.2625 12.4702 10.0979 11.4556C10.0979 11.4556 10.0019 11.867 9.80997 12.0315C9.80997 12.0315 10.1528 10.5645 9.71397 9.94748C9.71397 9.94748 9.72766 10.4685 9.53575 10.9895C9.53575 10.9895 9.60888 9.33961 8.85934 8.91919C8.85934 8.91919 9.15184 9.4402 9.02842 9.87891C9.02842 9.87891 8.82278 8.94656 7.86756 8.57639C7.86756 8.57639 7.80813 8.64492 7.82186 8.85061C7.82186 8.85061 7.56138 8.53523 6.91694 8.54897C6.91694 8.54897 6.93063 8.78203 7.09516 9.00141C7.09516 9.00141 6.83467 9.13852 6.67014 9.09741C6.67014 9.09741 6.93062 9.38536 7.84923 9.35789C7.84923 9.35789 7.72581 9.46758 7.47906 9.495C7.47906 9.495 7.85434 9.66736 8.224 9.70064C8.73133 9.7463 8.93242 10.0434 9.02838 10.4136C9.02838 10.4136 8.63078 10.1805 8.47994 9.94744C8.47994 9.94744 8.45252 10.345 9.20659 11.1128L8.82269 10.9483C8.82269 10.9483 9.06949 11.6613 9.37113 12.4702L9.05575 12.1274C9.05575 12.1274 8.98722 12.7033 8.93233 13.7727L8.71295 13.2654C8.71295 13.2654 8.32905 14.5268 7.7395 14.7324C7.27797 14.8935 6.7675 15.0037 6.56692 15.0441C6.54812 14.3384 6.84831 14.184 6.84831 14.184C7.38302 14.2114 7.50644 13.6219 7.50644 13.6219C7.39675 13.7316 7.19106 13.7316 7.19106 13.7316C7.50644 13.4025 7.50644 12.9364 7.50644 12.9364C7.31448 13.3065 7.01284 13.3614 7.01284 13.3614L7.04027 12.9912C6.48259 13.3968 6.52239 13.8718 6.53163 13.9414C6.51906 13.8526 6.41973 13.158 6.36845 12.9912C6.31361 12.813 6.43698 12.4565 6.62894 12.5113C7.25027 12.6888 7.39675 12.2371 7.39675 12.2371C7.06769 12.388 6.87573 12.2782 6.87573 12.2782C7.30075 11.8669 7.12253 11.4831 7.12253 11.4831C6.98542 11.8807 6.60152 11.9492 6.60152 11.9492L6.58783 11.5105C6.40961 11.6065 6.24503 12.0315 6.24503 12.0315C6.24503 12.0315 6.20392 11.6887 6.32725 11.3871C6.45067 11.0855 6.76595 11.2363 6.76595 11.2363C7.32808 11.346 7.50634 10.8112 7.50634 10.8112L7.13617 10.8661C7.5475 10.5645 7.42412 10.1942 7.42412 10.1942C7.32812 10.4273 6.98542 10.4685 6.98542 10.4685L7.14995 10.0297C6.79347 10.0297 6.58783 10.4959 6.58783 10.4959L6.56041 10.0435C6.72494 9.45394 6.34103 9.19341 6.34103 9.19341C6.25881 9.30309 6.29992 9.5362 6.29992 9.5362C5.95712 9.23456 5.69664 9.59105 5.69664 9.59105C5.95712 9.86522 6.20397 9.83784 6.20397 9.83784C6.12175 9.89269 5.82006 9.92006 5.82006 9.92006C6.16286 10.208 6.35477 10.1531 6.35477 10.1531C6.5193 10.8524 6.08055 11.1677 6.08055 11.1677C5.99833 10.6467 5.68295 10.3999 5.68295 10.3999L5.69664 10.7427C5.491 10.6193 5.32647 10.2491 5.32647 10.2491C5.18936 10.7701 5.55953 11.2226 5.55953 11.2226L5.21673 11.1952C5.51837 11.8944 5.99823 11.6751 5.99823 11.6751C5.95712 12.1687 6.12166 12.9776 6.12166 12.9776C6.05313 12.8954 5.32647 12.2098 5.32647 12.2098C5.29905 12.4839 5.55953 12.8404 5.55953 12.8404C5.42242 12.813 5.02483 12.5114 5.02483 12.5114C5.06594 12.9501 5.6418 13.238 5.6418 13.238C5.42242 13.2654 4.99736 13.0186 4.99736 13.0186C5.24416 14.0744 6.14903 13.6082 6.14903 13.6082L6.21845 15.0362C6.0273 14.9903 5.60931 14.8837 5.17558 14.7325C4.58603 14.5268 4.20213 13.2654 4.20213 13.2654L3.98275 13.7728C3.92791 12.7033 3.85933 12.1275 3.85933 12.1275L3.54395 12.4703C3.84559 11.6613 4.09239 10.9484 4.09239 10.9484L3.70848 11.1129C4.46256 10.3451 4.43514 9.94748 4.43514 9.94748C4.2843 10.1805 3.8867 10.4137 3.8867 10.4137C3.9827 10.0435 4.2843 9.65958 4.65452 9.63216C5.02473 9.60473 5.43602 9.49505 5.43602 9.49505C5.18922 9.46762 5.06584 9.35794 5.06584 9.35794C6.1353 9.26194 6.24494 8.97403 6.24494 8.97403C6.08041 9.01514 5.57308 8.96034 5.57308 8.96034C5.99809 8.72728 6.69737 8.50791 6.69737 8.50791C5.83356 8.35706 5.09322 8.8507 5.09322 8.8507C5.21664 8.61764 5.43602 8.35711 5.43602 8.35711C4.3803 8.82328 3.88666 9.879 3.88666 9.879C3.76323 9.4403 4.05573 8.91928 4.05573 8.91928C3.3062 9.33975 3.37933 10.9896 3.37933 10.9896C3.18738 10.4686 3.20111 9.94758 3.20111 9.94758C2.76241 10.5645 3.10511 12.0316 3.10511 12.0316C2.91316 11.8671 2.81716 11.4557 2.81716 11.4557C2.65263 12.4703 3.43413 13.5123 3.43413 13.5123C3.07764 13.3204 2.57031 12.6622 2.57031 12.6622C2.89937 13.9373 4.06478 14.3624 4.06478 14.3624C3.42034 14.1156 3.14617 14.3212 3.14617 14.3212C3.59861 14.4172 4.03736 14.6914 4.39384 14.9519C4.75033 15.2124 5.23023 15.2673 5.65525 15.3221C5.83084 15.3447 5.97634 15.3742 6.08903 15.4012C5.85672 15.5149 5.69641 15.7529 5.69641 16.029H7.09492C7.09492 15.7633 6.9468 15.5323 6.72859 15.4139C6.86903 15.3839 7.05611 15.3483 7.25945 15.322C7.68447 15.2672 8.12852 15.1544 8.52086 14.9519C8.94588 14.7325 9.31605 14.4172 9.76853 14.3212C9.76891 14.3211 9.49464 14.1154 8.8503 14.3623Z" fill="#FFE15A"/>
</svg>
