<svg width="24" height="24" viewBox="0 0 24 24" fill="none" xmlns="http://www.w3.org/2000/svg">
<path d="M22.2024 4.13705H1.79494C0.834703 4.13705 0.0504844 4.88991 0 5.83753V12H24V5.93466C24 4.94184 23.1952 4.13705 22.2024 4.13705Z" fill="#FF4B55"/>
<path d="M0 18.1625C0.0504844 19.11 0.834703 19.863 1.79494 19.863H22.2024C23.1952 19.863 24 19.0582 24 18.0653V12H0V18.1625Z" fill="#73AF00"/>
<path d="M12.1272 9.74292L12.6478 11.304L14.2934 11.3168C14.4209 11.3178 14.4737 11.4805 14.3712 11.5562L13.0474 12.5338L13.5438 14.1028C13.5822 14.2244 13.4439 14.3249 13.3401 14.2507L12.0012 13.2938L10.6624 14.2508C10.5586 14.3249 10.4202 14.2244 10.4587 14.1029L10.9551 12.5339L9.63127 11.5563C9.52871 11.4805 9.58154 11.3179 9.70908 11.3169L11.3547 11.3041L11.8753 9.74297C11.9157 9.62198 12.0868 9.62198 12.1272 9.74292Z" fill="#FFE15A"/>
</svg>
