<svg width="24" height="24" viewBox="0 0 24 24" fill="none" xmlns="http://www.w3.org/2000/svg">
<path d="M22.2026 19.8621H1.79742C0.804703 19.8621 0 19.0574 0 18.0646V5.93536C0 4.94269 0.804703 4.13794 1.79742 4.13794H22.2026C23.1952 4.13794 24 4.94264 24 5.93536V18.0647C24 19.0574 23.1953 19.8621 22.2026 19.8621Z" fill="#FF4B55"/>
<path d="M13.9664 13.0294L17.1273 10.7101H13.2128L11.9999 6.97711L10.787 10.7101H6.87256L10.0335 13.0294L8.82996 16.7336L11.9968 14.47L11.9999 14.4723L12.003 14.47L15.1699 16.7336L13.9664 13.0294ZM14.6005 11.5377L13.697 12.2006L13.4817 11.5377H14.6005ZM11.0054 12.7161L11.3884 11.5377H12.6115L12.9944 12.7161L11.9999 13.4459L11.0054 12.7161ZM11.9999 9.65546L12.3426 10.7101H11.6572L11.9999 9.65546ZM9.3994 11.5377H10.5182L10.3028 12.2006L9.3994 11.5377ZM10.3939 14.5983L10.7361 13.545L11.2945 13.9546L10.3939 14.5983ZM13.2638 13.545L13.6061 14.5983L12.7055 13.9546L13.2638 13.545Z" fill="#5A8250"/>
</svg>
