<svg width="24" height="24" viewBox="0 0 24 24" fill="none" xmlns="http://www.w3.org/2000/svg">
<path d="M10.3803 19.0953C10.4846 19.0636 10.4846 18.916 10.3804 18.8842L8.20817 18.2203C8.10397 18.1885 8.10402 18.0409 8.20827 18.0092L10.3796 17.348C10.4839 17.3163 10.4839 17.1686 10.3796 17.1369L8.20827 16.4757C8.10397 16.444 8.10392 16.2964 8.20817 16.2646L10.3803 15.6008C10.4845 15.5689 10.4845 15.4213 10.3802 15.3896L8.20827 14.7283C8.10397 14.6966 8.10392 14.5489 8.20817 14.5171L10.3804 13.8533C10.4846 13.8214 10.4845 13.6738 10.3803 13.6422L8.20827 12.9808C8.10397 12.949 8.10392 12.8015 8.20817 12.7697L10.3804 12.1058C10.4846 12.074 10.4845 11.9263 10.3803 11.8947L8.20827 11.2333C8.10397 11.2017 8.10392 11.054 8.20817 11.0222L10.3804 10.3583C10.4846 10.3265 10.4845 10.1789 10.3803 10.1472L8.20892 9.48608C8.10458 9.45425 8.10458 9.30664 8.20892 9.27486L10.3803 8.61374C10.4846 8.58205 10.4846 8.4344 10.3804 8.40261L8.20817 7.73877C8.10397 7.7069 8.10402 7.55938 8.20827 7.5276L10.3803 6.86624C10.4846 6.83455 10.4846 6.6869 10.3804 6.65512L8.20817 5.99128C8.10397 5.9594 8.10402 5.81184 8.20827 5.7801L10.3802 5.11879C10.4845 5.08701 10.4846 4.9394 10.3803 4.90762L7.87784 4.143C7.86739 4.13972 7.85652 4.13812 7.84555 4.13812H1.79742C0.804702 4.13794 0 4.94264 0 5.93535V18.0647C0 19.0573 0.804702 19.8621 1.79742 19.8621H7.84559C7.85652 19.8621 7.8673 19.8605 7.87775 19.8573L10.3803 19.0953Z" fill="#F5F5F5"/>
<path d="M22.2024 4.13794H11.1723H7.84546C7.85638 4.13794 7.86726 4.13958 7.87776 4.14281L10.3802 4.90744C10.4844 4.93927 10.4844 5.08688 10.3801 5.11861L8.20818 5.77992C8.10388 5.8117 8.10383 5.95926 8.20808 5.99109L10.3803 6.65493C10.4845 6.68676 10.4844 6.83437 10.3802 6.86606L8.20818 7.52742C8.10388 7.55925 8.10383 7.70676 8.20808 7.73859L10.3803 8.40243C10.4845 8.43426 10.4844 8.58187 10.3802 8.61356L8.20883 9.27468C8.10449 9.30651 8.10449 9.45412 8.20883 9.4859L10.3802 10.147C10.4845 10.1788 10.4845 10.3263 10.3803 10.3581L8.20808 11.022C8.10388 11.0539 8.10393 11.2015 8.20818 11.2332L10.3802 11.8945C10.4845 11.9262 10.4845 12.0738 10.3803 12.1056L8.20808 12.7695C8.10388 12.8014 8.10393 12.9489 8.20818 12.9807L10.3802 13.642C10.4845 13.6737 10.4845 13.8213 10.3803 13.8531L8.20808 14.5169C8.10388 14.5488 8.10393 14.6964 8.20818 14.7281L10.3801 15.3895C10.4844 15.4212 10.4845 15.5688 10.3802 15.6006L8.20808 16.2644C8.10388 16.2963 8.10393 16.4438 8.20818 16.4756L10.3795 17.1367C10.4839 17.1684 10.4839 17.3162 10.3795 17.3479L8.20818 18.009C8.10388 18.0407 8.10383 18.1884 8.20808 18.2201L10.3803 18.884C10.4845 18.9158 10.4844 19.0634 10.3802 19.0951L7.87771 19.8571C7.8673 19.8603 7.85643 19.8619 7.84555 19.8619H11.1724H22.2025C23.1952 19.8619 23.9999 19.0572 23.9999 18.0645V5.93531C23.9999 4.94264 23.1952 4.13794 22.2024 4.13794Z" fill="#873250"/>
</svg>
