<svg width="24" height="24" viewBox="0 0 24 24" fill="none" xmlns="http://www.w3.org/2000/svg">
<path d="M0 18.0646C0 19.0573 0.804703 19.862 1.79742 19.862H22.2026C23.1947 19.862 23.9991 19.0582 24 18.0664V15.931H0V18.0646Z" fill="#FFE15A"/>
<path d="M24 11.9998H0V15.9308H24V11.9998Z" fill="#73AF00"/>
<path d="M24 8.06888H0V11.9998H24V8.06888Z" fill="#F5F5F5"/>
<path d="M22.2026 4.13779H1.79742C0.804703 4.13779 0 4.94249 0 5.93521V8.06882H24V5.93343C23.9991 4.9416 23.1947 4.13779 22.2026 4.13779Z" fill="#41479B"/>
<path d="M13.9654 4.13794H10.0344V19.8622H13.9654V4.13794Z" fill="#FF4B55"/>
<path d="M3.58577 4.66734L3.93105 5.70266L5.0224 5.71115C5.10696 5.7118 5.14198 5.81971 5.07396 5.86996L4.19599 6.51824L4.52515 7.55877C4.55065 7.63935 4.45887 7.7061 4.3901 7.65688L3.50224 7.02229L2.61438 7.65688C2.54557 7.70605 2.45383 7.63935 2.47933 7.55877L2.80849 6.51824L1.93066 5.86991C1.86265 5.81971 1.89771 5.7118 1.98223 5.7111L3.07357 5.70262L3.41885 4.66729C3.44552 4.58713 3.55901 4.58713 3.58577 4.66734Z" fill="#FFE15A"/>
</svg>
