<svg width="64" height="64" viewBox="0 0 64 64" fill="none" xmlns="http://www.w3.org/2000/svg">
<path fill-rule="evenodd" clip-rule="evenodd" d="M45.172 8C48.748 8 52.188 9.41333 54.7186 11.9493C57.252 14.48 58.668 17.8933 58.668 21.4667V42.5333C58.668 49.9733 52.6146 56 45.172 56H18.828C11.3853 56 5.33464 49.9733 5.33464 42.5333V21.4667C5.33464 14.0267 11.3586 8 18.828 8H45.172ZM49.4144 25.4402L49.6277 25.2269C50.265 24.4536 50.265 23.3336 49.5984 22.5602C49.2277 22.1629 48.7184 21.9202 48.1877 21.8669C47.6277 21.8376 47.0944 22.0269 46.6917 22.4002L34.6677 32.0002C33.121 33.2829 30.905 33.2829 29.3344 32.0002L17.3344 22.4002C16.505 21.7869 15.3584 21.8669 14.6677 22.5869C13.9477 23.3069 13.8677 24.4536 14.4784 25.2536L14.8277 25.6002L26.961 35.0669C28.4544 36.2402 30.265 36.8802 32.161 36.8802C34.0517 36.8802 35.8944 36.2402 37.385 35.0669L49.4144 25.4402Z" fill="white"/>
</svg>
