<svg width="24" height="24" viewBox="0 0 24 24" fill="none" xmlns="http://www.w3.org/2000/svg">
<path d="M22.2134 4.13808H1.78664C0.798984 4.14389 0 4.94611 0 5.93517V9.37945H24V5.93517C24 4.94611 23.201 4.14389 22.2134 4.13808Z" fill="#73AF00"/>
<path d="M0 18.0645C0 19.0572 0.804703 19.8619 1.79742 19.8619H22.2026C23.1952 19.8619 24 19.0572 24 18.0645V14.6208H0V18.0645Z" fill="#FF4B55"/>
<path d="M24 9.37968H0V14.6208H24V9.37968Z" fill="#F5F5F5"/>
<path d="M0.601453 19.4059L6.62067 14.6279L6.62053 9.37229L0.601125 4.59409C0.232406 4.92329 0 5.40202 0 5.93518V18.0645C0 18.5979 0.2325 19.0767 0.601453 19.4059Z" fill="#464655"/>
</svg>
