<svg width="24" height="24" viewBox="0 0 24 24" fill="none" xmlns="http://www.w3.org/2000/svg">
<path d="M22.2025 19.8621H1.79742C0.804703 19.8621 0 19.0574 0 18.0646V5.93536C0 4.94269 0.804703 4.13794 1.79742 4.13794H22.2025C23.1952 4.13794 24 4.94264 24 5.93536V18.0646C24 19.0574 23.1952 19.8621 22.2025 19.8621Z" fill="#41479B"/>
<path d="M24 7.86194H0V16.1377H24V7.86194Z" fill="#FF4B55"/>
<path d="M17.4757 15.1375V14.5508H17.2801V14.1597H17.0845V13.7685H16.8889V13.3774H16.3023V12.2041H16.3022L16.4978 12.0085V11.4218H16.3023V11.0307H16.1067V10.444H15.9112V10.0528H15.7156V9.66172H15.5201V9.4662H15.1289V9.66172H14.9333V10.0528H14.7378V10.444H14.5422V11.0307H14.3467V11.4218H13.1733V10.8351H12.9777V10.2484H12.7822V9.66172H12.5866V9.27064H12.3911V8.87951H12.1955V8.6839H12.0977V8.48834H11.9021V8.6839H11.8043V8.87951H11.6088V9.27064H11.4132V9.66172H11.2177V10.2484H11.0221V10.8351H10.8266V11.4218H9.65318V11.0307H9.45761V10.444H9.26205V10.0528H9.06649V9.66172H8.87093V9.4662H8.4798V9.66172H8.28424V10.0528H8.08868V10.444H7.89311V11.0307H7.69755V11.4218H7.50199V12.0085L7.69746 12.2041H7.69755V13.3774H7.11091V13.7685H6.91535V14.1597H6.71974V14.5508H6.52418V15.1375H6.32861V15.7242H17.6712V15.1375H17.4757Z" fill="#F5F5F5"/>
</svg>
