<svg width="24" height="24" viewBox="0 0 24 24" fill="none" xmlns="http://www.w3.org/2000/svg">
<path d="M0.642 4.55869C0.249609 4.8884 0 5.38256 0 5.93517V18.0645C0 18.6173 0.249797 19.1116 0.642375 19.4414L12 12.0001L0.642 4.55869Z" fill="#F5F5F5"/>
<path d="M0.642334 19.4414C0.954756 19.7037 1.35751 19.8619 1.79738 19.8619H22.2025C23.1952 19.8619 24 19.0572 24 18.0645V12.0001H12L0.642334 19.4414Z" fill="#73AF00"/>
<path d="M22.2134 4.13808H1.78673C1.35089 4.14065 0.951934 4.2983 0.64209 4.55869L12.0001 12.0001H24.0001V5.93517C24.0001 4.94611 23.2011 4.14389 22.2134 4.13808Z" fill="#82AFFF"/>
<path d="M4.30165 10.1314L3.88259 11.388L2.55804 11.3983C2.48543 11.3988 2.45534 11.4915 2.5137 11.5347L3.57926 12.3216L3.17974 13.5845C3.15785 13.6538 3.2367 13.711 3.29576 13.6688L4.37337 12.8985L5.45098 13.6688C5.51004 13.7109 5.58888 13.6537 5.56699 13.5845L5.16748 12.3216L6.23304 11.5347C6.29144 11.4915 6.26135 11.3988 6.18869 11.3983L4.86415 11.388L4.44509 10.1314C4.42207 10.0625 4.32462 10.0625 4.30165 10.1314Z" fill="#FF4B55"/>
</svg>
