<svg width="24" height="24" viewBox="0 0 24 24" fill="none" xmlns="http://www.w3.org/2000/svg">
<path d="M22.2025 4.13794H7.44824C7.67676 4.13794 7.86205 4.32324 7.86205 4.55175V11.5862C7.86205 11.8148 7.67676 12 7.44824 12H23.9999V5.93536C23.9999 4.94264 23.1952 4.13794 22.2025 4.13794Z" fill="#F5F5F5"/>
<path d="M0.827578 12H0.413813C0.185297 12 0 11.8147 0 11.5862V12V12.4138V18.0647C0 19.0574 0.804703 19.8621 1.79742 19.8621H22.2026C23.1952 19.8621 24 19.0574 24 18.0647V12H7.4483H0.827578Z" fill="#FF4B55"/>
<path d="M0.413813 12H0.827625H7.4483C7.67681 12 7.86211 11.8147 7.86211 11.5862V4.55169C7.86211 4.32318 7.67681 4.13788 7.4483 4.13788H1.79742C0.804703 4.13793 0 4.94263 0 5.93535V11.5862C0 11.8147 0.185297 12 0.413813 12Z" fill="#41479B"/>
<path d="M4.09032 6.30409L4.48482 7.48693L5.73169 7.49659C5.89313 7.49781 5.96007 7.70387 5.83018 7.79973L4.82715 8.5404L5.20322 9.72925C5.25188 9.88318 5.07666 10.0104 4.94532 9.9166L3.93094 9.19159L2.91652 9.91665C2.78518 10.0105 2.60996 9.88318 2.65862 9.72929L3.03469 8.54045L2.03166 7.79978C1.90177 7.70387 1.96876 7.49785 2.13015 7.49664L3.37702 7.48698L3.77152 6.30414C3.82261 6.15095 4.03927 6.15095 4.09032 6.30409Z" fill="#F5F5F5"/>
</svg>
