<svg width="24" height="24" viewBox="0 0 24 24" fill="none" xmlns="http://www.w3.org/2000/svg">
<g clip-path="url(#clip0_923_1392)">
<path d="M2.66667 24C1.93333 24 1.30533 23.7391 0.782667 23.2173C0.260889 22.6947 0 22.0667 0 21.3333V2.66667C0 1.93333 0.260889 1.30533 0.782667 0.782667C1.30533 0.260889 1.93333 0 2.66667 0H21.3333C22.0667 0 22.6947 0.260889 23.2173 0.782667C23.7391 1.30533 24 1.93333 24 2.66667V21.3333C24 22.0667 23.7391 22.6947 23.2173 23.2173C22.6947 23.7391 22.0667 24 21.3333 24H2.66667ZM10.1333 17.0333C10.3111 17.0333 10.4778 17.0058 10.6333 16.9507C10.7889 16.8947 10.9333 16.8 11.0667 16.6667L18.6333 9.1C18.8778 8.85556 19 8.55556 19 8.2C19 7.84444 18.8667 7.53333 18.6 7.26667C18.3556 7.02222 18.0444 6.9 17.6667 6.9C17.2889 6.9 16.9778 7.02222 16.7333 7.26667L10.1333 13.8667L7.23333 10.9667C6.98889 10.7222 6.68889 10.6 6.33333 10.6C5.97778 10.6 5.66667 10.7333 5.4 11C5.15556 11.2444 5.03333 11.5556 5.03333 11.9333C5.03333 12.3111 5.15556 12.6222 5.4 12.8667L9.2 16.6667C9.33333 16.8 9.47778 16.8947 9.63333 16.9507C9.78889 17.0058 9.95556 17.0333 10.1333 17.0333Z" fill="#55AE6C"/>
</g>
<defs>
<clipPath id="clip0_923_1392">
<rect width="24" height="24" fill="white"/>
</clipPath>
</defs>
</svg>
