<svg width="24" height="24" viewBox="0 0 24 24" fill="none" xmlns="http://www.w3.org/2000/svg">
<g clip-path="url(#clip0_1_6333)">
<path d="M1.79753 19.8621H22.2027C23.1954 19.8621 24.0001 19.0574 24.0001 18.0647V14.6207L0.956543 19.6532C1.20751 19.7864 1.49359 19.8621 1.79753 19.8621Z" fill="#73AF00"/>
<path d="M1.79742 4.13794C0.804703 4.13794 0 4.94264 0 5.93536V18.0647C0 18.4716 0.135375 18.8468 0.363328 19.148L7.99997 4.13794H1.79742Z" fill="#41479B"/>
<path d="M7.99992 4.13794L0.363281 19.148C0.414703 19.2159 0.470766 19.2801 0.531141 19.3401L15.9999 4.13794H7.99992Z" fill="#FFE15A"/>
<path d="M22.2027 4.13794H16.0001L0.53125 19.3401C0.601422 19.4098 0.677594 19.4734 0.758453 19.5308L24.0001 9.37931V5.93536C24.0001 4.94264 23.1954 4.13794 22.2027 4.13794Z" fill="#FF4B55"/>
<path d="M0.956395 19.6531L24 14.6206V9.37927L0.758301 19.5308C0.821488 19.5756 0.887535 19.6166 0.956395 19.6531Z" fill="#F5F5F5"/>
</g>
<defs>
<clipPath id="clip0_1_6333">
<rect width="24" height="24" fill="white"/>
</clipPath>
</defs>
</svg>
