<svg width="24" height="24" viewBox="0 0 24 24" fill="none" xmlns="http://www.w3.org/2000/svg">
<g clip-path="url(#clip0_1_5827)">
<path d="M22.209 4.13757H1.79566C0.806408 4.13757 0 4.93929 0 5.93324V18.0669C0 19.0608 0.806408 19.8625 1.79566 19.8625H22.2043C23.1983 19.8625 24 19.0561 24 18.0669V5.93324C24.0047 4.93929 23.1983 4.13757 22.209 4.13757Z" fill="#FF4B55"/>
<path d="M12.1946 7.31158L13.301 10.631L16.7986 10.6591C16.9955 10.6591 17.0752 10.9123 16.9158 11.0248L14.1028 13.1018L15.1577 16.4352C15.2186 16.6228 15.0029 16.7775 14.8435 16.6603L12.0024 14.6302L9.15649 16.665C8.99708 16.7775 8.78611 16.6228 8.84237 16.4399L9.89726 13.1065L7.08421 11.0295C6.9248 10.9123 7.0092 10.6638 7.20142 10.6638L10.699 10.6357L11.8054 7.31627C11.8711 7.12404 12.1336 7.12404 12.1946 7.31158Z" fill="#FFE15A"/>
</g>
<defs>
<clipPath id="clip0_1_5827">
<rect width="24" height="24" fill="white"/>
</clipPath>
</defs>
</svg>
