<svg width="24" height="24" viewBox="0 0 24 24" fill="none" xmlns="http://www.w3.org/2000/svg">
<path d="M22.2026 4.13794H1.79742C0.804703 4.13794 0 4.94264 0 5.93536V6.75867H24V5.93536C24 4.94264 23.1953 4.13794 22.2026 4.13794Z" fill="#464655"/>
<path d="M24 6.75891H0V9.3796H24V6.75891Z" fill="#FFE15A"/>
<path d="M24 9.37921H0V11.9999H24V9.37921Z" fill="#FF4B55"/>
<path d="M24 12H0V14.6207H24V12Z" fill="#464655"/>
<path d="M24 14.6208H0V17.2415H24V14.6208Z" fill="#FFE15A"/>
<path d="M0 18.0646C0 19.0573 0.804703 19.8621 1.79742 19.8621H22.2026C23.1952 19.8621 24 19.0574 24 18.0646V17.2413H0V18.0646Z" fill="#FF4B55"/>
<path d="M12.0001 14.4828C13.3713 14.4828 14.4829 13.3712 14.4829 12C14.4829 10.6288 13.3713 9.51721 12.0001 9.51721C10.6289 9.51721 9.51733 10.6288 9.51733 12C9.51733 13.3712 10.6289 14.4828 12.0001 14.4828Z" fill="#F5F5F5"/>
<path d="M12.1497 10.4884L12.3943 10.3906C12.4297 10.3764 12.4468 10.3357 12.4312 10.301C12.3763 10.1794 12.2294 9.92776 11.9501 9.92016C11.7732 9.91538 11.641 9.95522 11.5664 9.98602C11.5283 10.0017 11.5129 10.0471 11.5338 10.0827L11.6813 10.3348L12.1497 10.4884Z" fill="#FF4B55"/>
<path d="M11.9502 9.92016C11.9298 9.9196 11.9115 9.92077 11.8923 9.92133L11.8657 10.3118L12.0078 10.3904L12.315 10.1124C12.2341 10.0146 12.1155 9.92462 11.9502 9.92016Z" fill="#FFE15A"/>
<path d="M13.002 12.7843L11.8963 11.4943C11.8963 11.2273 11.9928 11.0093 12.0461 10.909C12.1983 10.841 12.2965 10.6737 12.2556 10.4889C12.2259 10.3545 12.1175 10.2449 11.9833 10.2142C11.7419 10.1591 11.5277 10.3409 11.5277 10.5728C11.5277 10.5815 11.5297 10.5898 11.5303 10.5983C11.2918 10.6612 11.2475 10.7379 11.2475 10.7379C11.2475 10.7379 11.4038 10.6963 11.5394 10.6608C11.5422 10.6719 11.5458 10.6825 11.5495 10.6932L11.282 10.784L11.5741 10.7485C11.6065 10.8079 11.6546 10.8572 11.7127 10.8913C11.4943 11.0672 11.1591 11.3977 11.1591 11.7708C11.1591 12.112 11.4118 12.3393 11.7301 12.4904C11.8413 12.5433 11.9436 12.613 12.0277 12.703L12.0308 12.7064L12.0585 13.1299C11.8302 13.1299 11.5581 13.1299 11.4355 13.1299C11.2051 13.1299 11.1418 13.2796 11.1418 13.5273L11.2513 13.3718L11.3434 13.5446L11.3549 13.3487L11.4529 13.4754C11.4529 13.4754 11.4518 13.3099 11.5767 13.2882C11.6429 13.2767 11.8723 13.2623 12.0673 13.2623L12.1085 13.8935C11.8442 13.8922 11.5451 14.0167 11.5451 14.0167C11.6372 13.9994 11.8618 14.034 11.8618 14.034L11.8244 14.1434C12.0835 14.0023 12.5587 13.9994 12.5587 13.9994C12.5587 13.9994 12.455 13.9287 12.2132 13.901L12.2188 13.2622H12.599L12.6565 13.1125C12.6565 13.1125 12.4603 12.8522 12.4603 12.7144C12.7645 12.7722 13.002 12.7843 13.002 12.7843ZM12.2198 13.1299L12.2218 12.9108C12.3359 13.0331 12.4262 13.1299 12.4262 13.1299C12.4262 13.1299 12.3409 13.1299 12.2198 13.1299Z" fill="#464655"/>
<path d="M13.0022 12.9686C12.9101 12.6 12.5062 12.4867 12.0807 12.2314C11.6201 11.955 11.8964 11.4943 11.8964 11.4943C11.8964 11.4943 13.4398 11.9474 13.555 12.6C13.6447 13.1083 13.2786 13.4293 13.0943 13.5214L13.1605 13.3371H12.8178C12.8178 13.3371 13.1807 13.0549 13.1864 12.7842L13.0022 12.9686Z" fill="#696E7D"/>
<path d="M13.555 12.6C13.478 12.1636 12.7631 11.8169 12.2974 11.6347C12.1483 11.6181 12.0174 11.8686 12.4263 12.1393C12.9763 12.5034 13.0022 12.9686 13.0022 12.9686L13.1865 12.7843C13.1808 13.0549 12.8179 13.3372 12.8179 13.3372H13.1605L13.0944 13.5215C13.2786 13.4293 13.6447 13.1083 13.555 12.6Z" fill="#FFFCFF"/>
<path d="M13.555 12.6C13.5039 12.3108 13.1725 12.0613 12.8194 11.8726C12.6493 11.8218 12.5011 11.8283 12.5011 11.8283C12.6047 11.8917 12.6508 12.0529 12.6508 12.0529C12.576 12.0068 12.4089 12.0299 12.4089 12.0299C12.4554 12.0697 12.4994 12.1509 12.5288 12.2132C12.9793 12.5633 13.0021 12.9686 13.0021 12.9686L13.1865 12.7843C13.1807 13.055 12.8179 13.3372 12.8179 13.3372H13.1605L13.0943 13.5215C13.2786 13.4293 13.6447 13.1083 13.555 12.6Z" fill="#FF4B55"/>
<path d="M11.7465 10.5999C11.7805 10.5999 11.808 10.5724 11.808 10.5384C11.808 10.5045 11.7805 10.477 11.7465 10.477C11.7126 10.477 11.6851 10.5045 11.6851 10.5384C11.6851 10.5724 11.7126 10.5999 11.7465 10.5999Z" fill="#F5F5F5"/>
<path d="M11.5854 10.7725C11.5854 10.7725 11.451 10.9299 11.5393 10.976C11.6276 11.0221 11.7128 10.8912 11.7128 10.8912L11.5854 10.7725Z" fill="#FF4B55"/>
</svg>
