<svg width="24" height="24" viewBox="0 0 24 24" fill="none" xmlns="http://www.w3.org/2000/svg">
<g clip-path="url(#clip0_1_3483)">
<path d="M1.79742 19.8619H8.00002V4.13779H1.79742C0.804703 4.13779 0 4.9425 0 5.93522V18.0645C0 19.0572 0.804703 19.8619 1.79742 19.8619Z" fill="#41479B"/>
<path d="M16.0004 4.13799H8.00024V19.8622H16.0004V4.13799Z" fill="#FFE15A"/>
<path d="M22.2025 19.8619C23.1952 19.8619 24 19.0572 24 18.0645V5.93522C24 4.94254 23.1953 4.13779 22.2025 4.13779H16V19.8619H22.2025Z" fill="#41479B"/>
<path d="M15.3104 9.71498C15.3104 9.71498 14.159 9.71498 13.2954 10.5786H13.8711C13.8711 10.5786 13.3134 11.586 13.0255 13.3132L12.4318 13.2163V10.5699L13.0075 10.7584L12.0001 8.27573L10.9926 10.7585L11.5682 10.5666V13.2163L10.9746 13.3132C10.6867 11.5861 10.129 10.5786 10.129 10.5786H10.7047C9.84114 9.71503 8.6897 9.71503 8.6897 9.71503C10.129 11.4421 10.129 14.3207 10.129 14.3207L11.5683 14.0809V16.0479H12.4319V14.0809L13.8712 14.3207C13.8711 14.3207 13.8711 11.4421 15.3104 9.71498Z" fill="#464655"/>
</g>
<defs>
<clipPath id="clip0_1_3483">
<rect width="24" height="24" fill="white"/>
</clipPath>
</defs>
</svg>
