<svg width="24" height="24" viewBox="0 0 24 24" fill="none" xmlns="http://www.w3.org/2000/svg">
<g clip-path="url(#clip0_1_5125)">
<path d="M22.209 19.8625H1.79566C0.806408 19.8625 0 19.0607 0 18.0668V5.93318C0 4.93923 0.806408 4.13751 1.79566 4.13751H22.2043C23.1983 4.13751 24 4.94392 24 5.93318V18.0668C24.0047 19.0607 23.1983 19.8625 22.209 19.8625Z" fill="#FFE15A"/>
<path d="M1.79566 4.13751C0.806407 4.13751 0 4.93923 0 5.93318V18.0668C0 19.0607 0.806407 19.8625 1.79566 19.8625H7.99844V4.13751H1.79566Z" fill="#464655"/>
<path d="M22.2089 4.13751H16.0015V19.8625H22.2042C23.1982 19.8625 23.9999 19.0561 23.9999 18.0668V5.93318C24.0046 4.93923 23.1982 4.13751 22.2089 4.13751Z" fill="#FF4B55"/>
</g>
<defs>
<clipPath id="clip0_1_5125">
<rect width="24" height="24" fill="white"/>
</clipPath>
</defs>
</svg>
