<svg width="24" height="24" viewBox="0 0 24 24" fill="none" xmlns="http://www.w3.org/2000/svg">
<path d="M22.2134 4.13808H1.78664C0.798984 4.14389 0 4.94611 0 5.93517V12.0001H24V5.93517C24 4.94611 23.201 4.14389 22.2134 4.13808Z" fill="#FFE15A"/>
<path d="M0 18.0645C0 19.0572 0.804703 19.8619 1.79742 19.8619H22.2026C23.1952 19.8619 24 19.0572 24 18.0645V12.0001H0V18.0645Z" fill="#73AF00"/>
<path d="M1.79742 19.8619H7.86206V4.13808H1.78664C0.798984 4.14389 0 4.94611 0 5.93517V18.0645C0 19.0572 0.804703 19.8619 1.79742 19.8619Z" fill="#FF4B55"/>
<path d="M3.85304 9.93572L3.3969 11.3035L1.95507 11.3147C1.87604 11.3153 1.84323 11.4162 1.90688 11.4631L3.06676 12.3196L2.63185 13.6943C2.60799 13.7697 2.69382 13.832 2.75813 13.7861L3.93113 12.9476L5.10413 13.7861C5.16844 13.8321 5.25423 13.7697 5.23041 13.6943L4.79551 12.3196L5.95538 11.4631C6.01894 11.4162 5.98623 11.3153 5.90719 11.3147L4.46537 11.3035L4.00923 9.93572C3.9841 9.86072 3.87807 9.86072 3.85304 9.93572Z" fill="#464655"/>
</svg>
