<svg width="24" height="24" viewBox="0 0 24 24" fill="none" xmlns="http://www.w3.org/2000/svg">
<path d="M22.2026 4.13788H1.79742C0.804703 4.13788 0 4.94258 0 5.9353V18.0647C0 19.0573 0.804703 19.8621 1.79742 19.8621H22.2026C23.1952 19.8621 24 19.0574 24 18.0647V5.9353C24 4.94258 23.1953 4.13788 22.2026 4.13788Z" fill="#41479B"/>
<path d="M24 7.03455H0V16.9655H24V7.03455Z" fill="#F5F5F5"/>
<path d="M14.1501 11.9999L15.225 10.138H13.0751L11.9999 8.27582L10.9248 10.138H8.7749L9.84989 11.9999L8.7749 13.8619H10.9248L11.9999 15.7241L13.0751 13.8619H15.225L14.1501 11.9999ZM14.1704 10.747L13.7985 11.3911L13.4266 10.747H14.1704ZM13.4469 11.9999L12.7235 13.2529H11.2763L10.553 11.9999L11.2764 10.747H12.7236L13.4469 11.9999ZM11.9999 9.49372L12.3719 10.1381H11.6279L11.9999 9.49372ZM9.82954 10.747H10.5732L10.2014 11.3911L9.82954 10.747ZM9.82954 13.2529L10.2014 12.6089L10.5733 13.2529H9.82954ZM11.9999 14.5062L11.6279 13.8619H12.3719L11.9999 14.5062ZM13.7985 12.6089L14.1704 13.253H13.4267L13.7985 12.6089Z" fill="#41479B"/>
</svg>
