<svg width="24" height="24" viewBox="0 0 24 24" fill="none" xmlns="http://www.w3.org/2000/svg">
<path d="M22.203 19.863H1.797C0.804 19.863 0 19.059 0 18.066V5.93396C0 4.94096 0.804 4.13696 1.797 4.13696H22.203C23.196 4.13696 24 4.94096 24 5.93396V18.063C24 19.056 23.196 19.863 22.203 19.863Z" fill="#41479B"/>
<path d="M11.9999 8.36401L5.12988 12L11.9999 15.636L18.8699 12L11.9999 8.36401Z" fill="#F5F5F5"/>
<path d="M9.71688 14.337H14.1959L17.3129 12.687L15.9119 11.283H15.4229L15.0599 11.646L14.8019 11.388H14.2859L12.3089 13.365H9.82488L9.26088 12.531H8.54388L8.26188 12.924H7.94388L7.75488 13.299L9.71688 14.337Z" fill="#73AF00"/>
<path d="M12.0539 10.017L12.2189 10.509L12.7379 10.512C12.8039 10.512 12.8339 10.599 12.7799 10.638L12.3629 10.95L12.5189 11.445C12.5399 11.508 12.4649 11.562 12.4109 11.523L11.9879 11.22L11.5649 11.523C11.5109 11.562 11.4359 11.508 11.4569 11.445L11.6129 10.95L11.1959 10.641C11.1419 10.602 11.1689 10.515 11.2379 10.515L11.7569 10.512L11.9219 10.02C11.9429 9.95397 12.0329 9.95397 12.0539 10.017Z" fill="#FFE15A"/>
<path d="M22.203 4.13696H1.797C0.804 4.13696 0 4.94096 0 5.93396V18.063C0 19.056 0.804 19.86 1.797 19.86H22.203C23.196 19.86 24 19.056 24 18.063V5.93396C24 4.94396 23.196 4.13696 22.203 4.13696ZM0.828 4.96496H11.586V8.02496L4.863 11.586H0.828V4.96496ZM11.586 19.035H0.828V12.414H4.863L11.586 15.972V19.035ZM5.85 12L12 8.74496L18.15 12L12 15.255L5.85 12ZM23.172 19.035H12.414V15.975L19.137 12.417H23.172V19.035ZM23.172 11.586H19.137L12.414 8.02796V4.96796H23.172V11.586Z" fill="#FF4B55"/>
</svg>
