<svg width="24" height="24" viewBox="0 0 24 24" fill="none" xmlns="http://www.w3.org/2000/svg">
<path d="M1.79742 19.8621H22.2026C23.1952 19.8621 24 19.0574 24 18.0647V5.93542C24 4.94275 23.1953 4.138 22.2026 4.138H1.79742C0.804703 4.138 0 4.9427 0 5.93542V18.0647C0 19.0574 0.804703 19.8621 1.79742 19.8621Z" fill="#FF4B55"/>
<path d="M0.413812 12H9.10345C9.33197 12 9.51727 11.8147 9.51727 11.5862V4.55175C9.51727 4.32328 9.33211 4.13803 9.10359 4.13794H1.79742C0.804703 4.13799 0 4.94269 0 5.93541V11.5863C0 11.8148 0.185297 12 0.413812 12Z" fill="#F5F5F5"/>
<path d="M7.86218 7.03455H5.79321V4.96558H3.72424V7.03455H1.65527V9.10351H3.72424V11.1725H5.79321V9.10351H7.86218V7.03455Z" fill="#FF4B55"/>
</svg>
