<svg width="24" height="24" viewBox="0 0 24 24" fill="none" xmlns="http://www.w3.org/2000/svg">
<path d="M1.79742 4.13782C0.804703 4.13782 0 4.94252 0 5.93524V18.0646C0 19.0572 0.804703 19.862 1.79742 19.862H8.00002V4.13782H1.79742Z" fill="#73AF00"/>
<path d="M16.0004 4.13794H8.00024V19.8622H16.0004V4.13794Z" fill="#FFE15A"/>
<path d="M22.2026 4.13782H16V19.8619H22.2026C23.1953 19.8619 24 19.0572 24 18.0645V5.93524C24 4.94252 23.1953 4.13782 22.2026 4.13782Z" fill="#FF4B55"/>
<path d="M12.0956 9.64586L12.6437 11.2894L14.3761 11.3028C14.473 11.3036 14.5132 11.4272 14.4353 11.4848L13.0416 12.5139L13.5641 14.1657C13.5933 14.2581 13.4882 14.3345 13.4094 14.2782L12 13.2707L10.5905 14.2781C10.5116 14.3344 10.4065 14.258 10.4357 14.1656L10.9583 12.5138L9.56457 11.4847C9.48662 11.4271 9.52679 11.3035 9.62368 11.3027L11.3561 11.2893L11.9042 9.64576C11.9349 9.55394 12.065 9.55394 12.0956 9.64586Z" fill="#73AF00"/>
</svg>
