<svg width="24" height="24" viewBox="0 0 24 24" fill="none" xmlns="http://www.w3.org/2000/svg">
<path d="M22.2026 4.13794H1.79743C1.37649 4.13794 0.989631 4.28302 0.68335 4.52541L9.64449 9.37931H24V5.93536C24 4.94264 23.1953 4.13794 22.2026 4.13794Z" fill="#464655"/>
<path d="M0.68335 19.4746C0.989678 19.717 1.37649 19.8621 1.79743 19.8621H22.2026C23.1953 19.8621 24 19.0574 24 18.0646V14.6207H9.64454L0.68335 19.4746Z" fill="#73AF00"/>
<path d="M14.1735 11.8325C14.3066 11.9046 14.3066 12.0955 14.1735 12.1675L9.64458 14.6207H24V9.37931H9.64453L14.1735 11.8325Z" fill="#F5F5F5"/>
<path d="M14.1735 12.1675C14.3065 12.0955 14.3065 11.9046 14.1735 11.8325L9.64448 9.37936L0.683344 4.52541C0.267281 4.85461 0 5.36358 0 5.93536V9.37931V14.6207V18.0646C0 18.6364 0.267281 19.1454 0.683344 19.4746L9.64448 14.6207L14.1735 12.1675Z" fill="#FF4B55"/>
<path d="M4.47177 10.9296L4.71772 11.463L5.28814 11.3227C5.32372 11.314 5.35325 11.3509 5.3368 11.3837L5.07308 11.9086L5.53846 12.2671C5.56752 12.2895 5.55697 12.3357 5.52106 12.3432L4.94624 12.4643L4.95613 13.0516C4.95674 13.0883 4.91408 13.1088 4.88581 13.0855L4.43277 12.7116L3.97972 13.0855C3.95141 13.1089 3.9088 13.0883 3.90941 13.0516L3.9193 12.4643L3.34447 12.3432C3.30856 12.3357 3.29802 12.2895 3.32708 12.2671L3.79245 11.9086L3.52874 11.3837C3.51228 11.3509 3.54177 11.3139 3.57739 11.3227L4.14781 11.463L4.39377 10.9296C4.40905 10.8963 4.45639 10.8963 4.47177 10.9296Z" fill="#F5F5F5"/>
</svg>
