<svg width="24" height="24" viewBox="0 0 24 24" fill="none" xmlns="http://www.w3.org/2000/svg">
<path d="M1.79742 19.8621H22.2026C23.1952 19.8621 24 19.0574 24 18.0646V5.93536C24 4.94269 23.1953 4.13794 22.2026 4.13794H1.79742C0.804703 4.13794 0 4.94264 0 5.93536V18.0647C0 19.0574 0.804703 19.8621 1.79742 19.8621Z" fill="#F5F5F5"/>
<path d="M22.6207 6.62953C22.5405 6.60121 22.4512 6.64289 22.4227 6.72407C22.3203 7.0132 22.2094 7.27237 22.0944 7.5172C21.802 7.80656 21.4378 8.02237 21.0863 8.08626C20.5173 8.18972 20.2414 8.46557 20.2414 8.46557C19.2415 8.17247 19.0518 8.72418 18.8276 8.96559C18.7021 9.10073 18.5393 9.14765 18.3927 9.14915C17.8571 8.85707 17.4964 8.50101 17.4897 8.49436C17.4295 8.43332 17.3308 8.4329 17.2702 8.49318C17.2092 8.55337 17.2088 8.65162 17.2691 8.71261C17.3145 8.75859 18.1867 9.62311 19.3057 9.80282C18.9808 9.89845 18.7415 9.96553 18.7415 9.96553C18.7415 9.96553 18.3794 9.96553 17.2932 10.8449C16.207 11.7242 15.4483 11.8104 14.9656 11.7932C14.4828 11.776 14.1207 11.6035 13.6035 12.0001C13.0863 12.3967 12.4139 12.3277 12.0001 12.3277C11.5863 12.3277 10.9139 12.3967 10.3966 12.0001C9.8794 11.6035 9.51729 11.776 9.03453 11.7932C8.55181 11.8104 7.79314 11.7242 6.70695 10.8449C5.62076 9.96548 5.25865 9.96553 5.25865 9.96553C5.25865 9.96553 5.01926 9.89845 4.69447 9.80282C5.81342 9.62311 6.68562 8.75854 6.73109 8.71261C6.79128 8.65157 6.7909 8.55342 6.72992 8.49318C6.66931 8.433 6.57073 8.43337 6.5105 8.49436C6.50379 8.50092 6.14304 8.85698 5.6075 9.14915C5.46082 9.14765 5.29807 9.10073 5.17254 8.96559C4.94839 8.72418 4.75873 8.17247 3.7587 8.46557C3.7587 8.46557 3.48284 8.18972 2.91387 8.08626C2.5624 8.02237 2.19818 7.80656 1.90573 7.5172C1.79084 7.27232 1.67989 7.0132 1.57742 6.72407C1.54892 6.64289 1.45962 6.60121 1.37942 6.62953C1.29856 6.65821 1.25614 6.74672 1.28487 6.82753C1.28797 6.83625 1.29153 6.8437 1.29467 6.85247C1.30976 6.93182 1.62457 8.51981 2.77597 9.62081C3.58686 10.3962 4.37328 11.5793 4.70703 12.2415C5.79322 14.3967 7.86218 17.2932 12.0001 17.2932C16.1381 17.2932 18.207 14.3967 19.2932 12.2415C19.627 11.5793 20.4134 10.3961 21.2243 9.62081C22.3756 8.51986 22.6904 6.93182 22.7056 6.85247C22.7087 6.84375 22.7122 6.83629 22.7154 6.82753C22.744 6.74672 22.7015 6.65821 22.6207 6.62953Z" fill="#FF4B55"/>
</svg>
