<svg width="24" height="24" viewBox="0 0 24 24" fill="none" xmlns="http://www.w3.org/2000/svg">
<g clip-path="url(#clip0_1_5509)">
<path d="M0 7.03448V16.9655L6.62067 12L0 7.03448Z" fill="#464655"/>
<path d="M22.2025 4.13794H3.3103L10.7586 9.93103H23.9999V5.93536C23.9999 4.94264 23.1952 4.13794 22.2025 4.13794Z" fill="#FF4B55"/>
<path d="M3.3103 19.8621H22.2025C23.1952 19.8621 23.9999 19.0574 23.9999 18.0646V14.069H10.7586L3.3103 19.8621Z" fill="#41479B"/>
<path d="M2.66667 4.13794H1.79742C0.804703 4.13794 0 4.94264 0 5.93536V6.24905L7.26441 12L0 17.7511V18.0646C0 19.0573 0.804703 19.8621 1.79742 19.8621H2.66644L10.5068 13.6552H24V10.3448H10.5069L2.66667 4.13794Z" fill="#73AF00"/>
<path d="M4.00006 4.13794H2.66675L10.507 10.3448H24.0001V9.51722H10.795L4.00006 4.13794Z" fill="#F5F5F5"/>
<path d="M0 6.24902V7.30455L5.93109 12L0 16.6956V17.7511L7.26441 12L0 6.24902Z" fill="#FFE15A"/>
<path d="M10.507 13.6552L2.6665 19.8621H3.99986L10.7949 14.4828H24.0001V13.6552H10.507Z" fill="#F5F5F5"/>
</g>
<defs>
<clipPath id="clip0_1_5509">
<rect width="24" height="24" fill="white"/>
</clipPath>
</defs>
</svg>
