<svg width="24" height="24" viewBox="0 0 24 24" fill="none" xmlns="http://www.w3.org/2000/svg">
<path d="M22.2026 19.8621H1.79742C0.804703 19.8621 0 19.0574 0 18.0646V5.93536C0 4.94269 0.804703 4.13794 1.79742 4.13794H22.2026C23.1952 4.13794 24 4.94264 24 5.93536V18.0647C24 19.0574 23.1953 19.8621 22.2026 19.8621Z" fill="#41479B"/>
<path d="M0.773934 19.542L23.9999 9.93131V7.03476L0.427246 19.2275C0.528543 19.3467 0.645074 19.4526 0.773934 19.542Z" fill="#F5F5F5"/>
<path d="M23.3431 4.54604L0.20874 18.9052C0.269959 19.0207 0.343459 19.1287 0.427412 19.2274L24.0001 7.03472V5.93532C24.0001 5.37558 23.7442 4.87571 23.3431 4.54604Z" fill="#FF9B55"/>
<path d="M6.83927 9.85195L9.51728 9.5175L6.83927 9.18309L8.19653 8.35059L6.50777 8.76352L7.53555 7.36134L6.13338 8.38908L6.54625 6.70036L5.71385 8.05762L5.37939 5.37956L5.04494 8.05762L4.21249 6.70036L4.62541 8.38908L3.22319 7.36134L4.25097 8.76352L2.5622 8.35059L3.91947 9.18309L1.24146 9.5175L3.91947 9.85195L2.5622 10.6844L4.25097 10.2715L3.22319 11.6737L4.62541 10.6459L4.21249 12.3346L5.04494 10.9774L5.37939 13.6554L5.71385 10.9774L6.54625 12.3346L6.13338 10.6459L7.53555 11.6737L6.50777 10.2715L8.19653 10.6844L6.83927 9.85195Z" fill="#F5F5F5"/>
</svg>
